<svg xmlns="http://www.w3.org/2000/svg" version="1.1" xmlns:xlink="http://www.w3.org/1999/xlink" xmlns:svgjs="http://svgjs.dev/svgjs" viewBox="0 0 5.344050009605165 5.728371691062668"><g transform="matrix(1,0,0,1,0.4610173143728953,3.8378543766897724)"><g><path d=" M 0.384 0.06900000000000017 Q 0.459 0.06900000000000017 0.498 0.08625000000000016 Q 0.537 0.10350000000000015 0.5670000000000001 0.12450000000000006 Q 0.585 0.13500000000000023 0.5962500000000001 0.1402500000000002 Q 0.6075 0.14550000000000018 0.618 0.14550000000000018 Q 0.633 0.14550000000000018 0.63975 0.12900000000000023 Q 0.6465 0.11250000000000027 0.651 0.07950000000000013 L 0.6855 0.07950000000000013 Q 0.684 0.1050000000000002 0.68175 0.1402500000000002 Q 0.6795 0.1755000000000002 0.67875 0.23325000000000018 Q 0.678 0.29100000000000015 0.678 0.3855000000000002 L 0.6435 0.3855000000000002 Q 0.639 0.3135000000000002 0.612 0.24750000000000016 Q 0.585 0.18150000000000022 0.53325 0.13950000000000018 Q 0.4815 0.09750000000000014 0.3975 0.09750000000000014 Q 0.318 0.09750000000000014 0.26625 0.14550000000000018 Q 0.2145 0.19350000000000012 0.2145 0.2715000000000002 Q 0.2145 0.3390000000000002 0.249 0.38475000000000015 Q 0.28350000000000003 0.4305000000000002 0.34125 0.46725000000000017 Q 0.399 0.5040000000000002 0.4665 0.5460000000000002 Q 0.5445 0.5940000000000002 0.6052500000000001 0.6412500000000002 Q 0.666 0.6885000000000001 0.70125 0.7455000000000002 Q 0.7365 0.8025000000000002 0.7365 0.8835000000000002 Q 0.7365 0.9795000000000001 0.6930000000000001 1.0425000000000002 Q 0.6495 1.1055000000000001 0.5775 1.1370000000000002 Q 0.5055000000000001 1.1685 0.4185 1.1685 Q 0.339 1.1685 0.2925 1.1505 Q 0.246 1.1325000000000003 0.213 1.1130000000000002 Q 0.18 1.092 0.162 1.092 Q 0.147 1.092 0.14025 1.1085000000000003 Q 0.1335 1.1250000000000002 0.129 1.1580000000000001 L 0.0945 1.1580000000000001 Q 0.0975 1.1265000000000003 0.09825 1.0837500000000002 Q 0.099 1.0410000000000001 0.09975 0.9720000000000002 Q 0.1005 0.9030000000000002 0.1005 0.7980000000000002 L 0.135 0.7980000000000002 Q 0.14100000000000001 0.8880000000000001 0.16875 0.9660000000000002 Q 0.1965 1.0440000000000003 0.25425000000000003 1.0912500000000003 Q 0.312 1.1385000000000003 0.40800000000000003 1.1385000000000003 Q 0.4575 1.1385000000000003 0.50175 1.1182500000000002 Q 0.546 1.098 0.5745 1.0537500000000002 Q 0.603 1.0095 0.603 0.9390000000000002 Q 0.603 0.8775000000000002 0.57375 0.8317500000000002 Q 0.5445 0.7860000000000003 0.492 0.7462500000000002 Q 0.4395 0.7065000000000001 0.369 0.6645000000000002 Q 0.2985 0.6210000000000002 0.23700000000000002 0.5760000000000002 Q 0.17550000000000002 0.5310000000000001 0.13875 0.4717500000000002 Q 0.10200000000000001 0.4125000000000002 0.10200000000000001 0.3285000000000001 Q 0.10200000000000001 0.2400000000000002 0.14175000000000001 0.18225000000000013 Q 0.1815 0.12450000000000006 0.246 0.09675000000000011 Q 0.3105 0.06900000000000017 0.384 0.06900000000000017 M 1.081467041015625 1.1580000000000001 Q 1.019967041015625 1.1580000000000001 0.974967041015625 1.1347500000000001 Q 0.929967041015625 1.1115000000000002 0.906717041015625 1.0695000000000001 Q 0.883467041015625 1.0275000000000003 0.883467041015625 0.9720000000000002 Q 0.883467041015625 0.9060000000000001 0.914217041015625 0.8640000000000001 Q 0.944967041015625 0.8220000000000002 0.992967041015625 0.7965000000000002 Q 1.040967041015625 0.7710000000000001 1.0942170410156251 0.7537500000000001 Q 1.147467041015625 0.7365000000000002 1.195467041015625 0.7207500000000002 Q 1.243467041015625 0.7050000000000002 1.274217041015625 0.6840000000000002 Q 1.304967041015625 0.6630000000000003 1.304967041015625 0.6285000000000002 L 1.304967041015625 0.5355000000000002 Q 1.304967041015625 0.47250000000000014 1.286217041015625 0.4395000000000002 Q 1.267467041015625 0.4065000000000002 1.2359670410156252 0.3952500000000002 Q 1.204467041015625 0.3840000000000001 1.1654670410156251 0.3840000000000001 Q 1.127967041015625 0.3840000000000001 1.085217041015625 0.3945000000000002 Q 1.042467041015625 0.40500000000000014 1.016967041015625 0.43800000000000017 Q 1.045467041015625 0.4440000000000002 1.066467041015625 0.4680000000000002 Q 1.087467041015625 0.4920000000000002 1.087467041015625 0.5295000000000002 Q 1.087467041015625 0.5670000000000002 1.063467041015625 0.5887500000000002 Q 1.039467041015625 0.6105000000000002 1.001967041015625 0.6105000000000002 Q 0.9584670410156251 0.6105000000000002 0.938217041015625 0.5827500000000002 Q 0.917967041015625 0.5550000000000002 0.917967041015625 0.5205000000000002 Q 0.917967041015625 0.48150000000000015 0.9374670410156251 0.45750000000000013 Q 0.956967041015625 0.4335000000000002 0.986967041015625 0.4125000000000002 Q 1.021467041015625 0.3885000000000002 1.076217041015625 0.3712500000000002 Q 1.130967041015625 0.3540000000000002 1.1999670410156251 0.3540000000000002 Q 1.261467041015625 0.3540000000000002 1.304967041015625 0.3682500000000002 Q 1.348467041015625 0.3825000000000002 1.3769670410156252 0.4095000000000002 Q 1.4159670410156249 0.4455000000000001 1.4279670410156249 0.4972500000000002 Q 1.439967041015625 0.5490000000000002 1.439967041015625 0.6210000000000002 L 1.439967041015625 1.0380000000000003 Q 1.439967041015625 1.0755000000000001 1.4512170410156249 1.092 Q 1.462467041015625 1.1085000000000003 1.4864670410156249 1.1085000000000003 Q 1.502967041015625 1.1085000000000003 1.5179670410156252 1.1010000000000002 Q 1.5329670410156249 1.0935000000000001 1.553967041015625 1.0770000000000002 L 1.570467041015625 1.1025000000000003 Q 1.538967041015625 1.1265000000000003 1.510467041015625 1.1422500000000002 Q 1.4819670410156252 1.1580000000000001 1.433967041015625 1.1580000000000001 Q 1.390467041015625 1.1580000000000001 1.361967041015625 1.1430000000000002 Q 1.333467041015625 1.1280000000000001 1.319217041015625 1.0987500000000001 Q 1.304967041015625 1.0695000000000001 1.304967041015625 1.0245000000000002 Q 1.264467041015625 1.092 1.208217041015625 1.1250000000000002 Q 1.151967041015625 1.1580000000000001 1.081467041015625 1.1580000000000001 M 1.135467041015625 1.098 Q 1.184967041015625 1.098 1.227717041015625 1.0695000000000001 Q 1.2704670410156251 1.0410000000000001 1.304967041015625 0.9840000000000002 L 1.304967041015625 0.6900000000000002 Q 1.286967041015625 0.7155000000000002 1.252467041015625 0.7327500000000002 Q 1.217967041015625 0.7500000000000002 1.177467041015625 0.7672500000000002 Q 1.136967041015625 0.7845000000000002 1.100217041015625 0.8077500000000002 Q 1.063467041015625 0.8310000000000002 1.039467041015625 0.8685000000000002 Q 1.015467041015625 0.9060000000000001 1.015467041015625 0.9660000000000002 Q 1.015467041015625 1.0260000000000002 1.0477170410156251 1.0620000000000003 Q 1.079967041015625 1.098 1.135467041015625 1.098 M 2.13444580078125 0.3540000000000002 Q 2.19144580078125 0.3540000000000002 2.22969580078125 0.3690000000000002 Q 2.2679458007812503 0.3840000000000001 2.29344580078125 0.41100000000000014 Q 2.32194580078125 0.44100000000000017 2.33394580078125 0.4860000000000002 Q 2.34594580078125 0.5310000000000001 2.34594580078125 0.6075000000000002 L 2.34594580078125 1.0080000000000002 Q 2.34594580078125 1.0710000000000002 2.37219580078125 1.0935000000000001 Q 2.39844580078125 1.116 2.45994580078125 1.116 L 2.45994580078125 1.1475000000000002 Q 2.43444580078125 1.1460000000000001 2.38194580078125 1.1437500000000003 Q 2.32944580078125 1.1415000000000002 2.27994580078125 1.1415000000000002 Q 2.2304458007812498 1.1415000000000002 2.18319580078125 1.1437500000000003 Q 2.13594580078125 1.1460000000000001 2.11194580078125 1.1475000000000002 L 2.11194580078125 1.116 Q 2.16594580078125 1.116 2.18844580078125 1.0935000000000001 Q 2.21094580078125 1.0710000000000002 2.21094580078125 1.0080000000000002 L 2.21094580078125 0.5745000000000001 Q 2.21094580078125 0.5280000000000001 2.20344580078125 0.4890000000000002 Q 2.1959458007812502 0.4500000000000002 2.16969580078125 0.42600000000000016 Q 2.14344580078125 0.40200000000000014 2.08944580078125 0.40200000000000014 Q 2.02644580078125 0.40200000000000014 1.97919580078125 0.43800000000000017 Q 1.93194580078125 0.4740000000000002 1.9056958007812501 0.5362500000000002 Q 1.87944580078125 0.5985000000000001 1.87944580078125 0.6750000000000002 L 1.87944580078125 1.0080000000000002 Q 1.87944580078125 1.0710000000000002 1.90194580078125 1.0935000000000001 Q 1.9244458007812502 1.116 1.97844580078125 1.116 L 1.97844580078125 1.1475000000000002 Q 1.95444580078125 1.1460000000000001 1.90719580078125 1.1437500000000003 Q 1.85994580078125 1.1415000000000002 1.81044580078125 1.1415000000000002 Q 1.76094580078125 1.1415000000000002 1.70844580078125 1.1437500000000003 Q 1.65594580078125 1.1460000000000001 1.6304458007812501 1.1475000000000002 L 1.6304458007812501 1.116 Q 1.69194580078125 1.116 1.7181958007812501 1.0935000000000001 Q 1.74444580078125 1.0710000000000002 1.74444580078125 1.0080000000000002 L 1.74444580078125 0.5385000000000002 Q 1.74444580078125 0.4710000000000002 1.72044580078125 0.4387500000000002 Q 1.69644580078125 0.4065000000000002 1.6304458007812501 0.4065000000000002 L 1.6304458007812501 0.3750000000000002 Q 1.67844580078125 0.37950000000000017 1.72344580078125 0.37950000000000017 Q 1.76694580078125 0.37950000000000017 1.8066958007812501 0.3742500000000002 Q 1.84644580078125 0.3690000000000002 1.87944580078125 0.35850000000000015 L 1.87944580078125 0.5355000000000002 Q 1.91844580078125 0.4335000000000002 1.98819580078125 0.39375000000000016 Q 2.05794580078125 0.3540000000000002 2.13444580078125 0.3540000000000002 M 2.458423095703125 1.4295000000000002 L 2.458423095703125 1.4070000000000003 Q 2.5514230957031248 1.4025000000000003 2.5979230957031247 1.32675 Q 2.6444230957031247 1.2510000000000001 2.6444230957031247 1.1190000000000002 L 2.6444230957031247 0.5385000000000002 Q 2.6444230957031247 0.4710000000000002 2.620423095703125 0.4387500000000002 Q 2.596423095703125 0.4065000000000002 2.530423095703125 0.4065000000000002 L 2.530423095703125 0.3750000000000002 Q 2.578423095703125 0.37950000000000017 2.623423095703125 0.37950000000000017 Q 2.666923095703125 0.37950000000000017 2.706673095703125 0.3742500000000002 Q 2.746423095703125 0.3690000000000002 2.779423095703125 0.35850000000000015 L 2.779423095703125 0.9750000000000002 Q 2.779423095703125 1.0500000000000003 2.768923095703125 1.1175000000000002 Q 2.758423095703125 1.1850000000000003 2.734423095703125 1.2405000000000002 Q 2.710423095703125 1.2960000000000003 2.671423095703125 1.338 Q 2.6339230957031248 1.3785000000000003 2.579173095703125 1.4040000000000001 Q 2.524423095703125 1.4295000000000002 2.458423095703125 1.4295000000000002 M 2.698423095703125 2.220446049250313e-16 Q 2.737423095703125 2.220446049250313e-16 2.765923095703125 0.028500000000000192 Q 2.794423095703125 0.05700000000000016 2.794423095703125 0.09600000000000009 Q 2.794423095703125 0.13500000000000023 2.765923095703125 0.1635000000000002 Q 2.737423095703125 0.19200000000000017 2.698423095703125 0.19200000000000017 Q 2.659423095703125 0.19200000000000017 2.630923095703125 0.1635000000000002 Q 2.602423095703125 0.13500000000000023 2.602423095703125 0.09600000000000009 Q 2.602423095703125 0.05700000000000016 2.630923095703125 0.028500000000000192 Q 2.659423095703125 2.220446049250313e-16 2.698423095703125 2.220446049250313e-16 M 3.16946630859375 1.1580000000000001 Q 3.10796630859375 1.1580000000000001 3.06296630859375 1.1347500000000001 Q 3.01796630859375 1.1115000000000002 2.99471630859375 1.0695000000000001 Q 2.97146630859375 1.0275000000000003 2.97146630859375 0.9720000000000002 Q 2.97146630859375 0.9060000000000001 3.00221630859375 0.8640000000000001 Q 3.03296630859375 0.8220000000000002 3.08096630859375 0.7965000000000002 Q 3.1289663085937502 0.7710000000000001 3.18221630859375 0.7537500000000001 Q 3.2354663085937503 0.7365000000000002 3.28346630859375 0.7207500000000002 Q 3.33146630859375 0.7050000000000002 3.36221630859375 0.6840000000000002 Q 3.39296630859375 0.6630000000000003 3.39296630859375 0.6285000000000002 L 3.39296630859375 0.5355000000000002 Q 3.39296630859375 0.47250000000000014 3.37421630859375 0.4395000000000002 Q 3.35546630859375 0.4065000000000002 3.32396630859375 0.3952500000000002 Q 3.2924663085937502 0.3840000000000001 3.25346630859375 0.3840000000000001 Q 3.21596630859375 0.3840000000000001 3.17321630859375 0.3945000000000002 Q 3.13046630859375 0.40500000000000014 3.1049663085937502 0.43800000000000017 Q 3.13346630859375 0.4440000000000002 3.15446630859375 0.4680000000000002 Q 3.1754663085937502 0.4920000000000002 3.1754663085937502 0.5295000000000002 Q 3.1754663085937502 0.5670000000000002 3.15146630859375 0.5887500000000002 Q 3.12746630859375 0.6105000000000002 3.08996630859375 0.6105000000000002 Q 3.0464663085937502 0.6105000000000002 3.02621630859375 0.5827500000000002 Q 3.00596630859375 0.5550000000000002 3.00596630859375 0.5205000000000002 Q 3.00596630859375 0.48150000000000015 3.02546630859375 0.45750000000000013 Q 3.04496630859375 0.4335000000000002 3.07496630859375 0.4125000000000002 Q 3.10946630859375 0.3885000000000002 3.1642163085937502 0.3712500000000002 Q 3.21896630859375 0.3540000000000002 3.28796630859375 0.3540000000000002 Q 3.34946630859375 0.3540000000000002 3.39296630859375 0.3682500000000002 Q 3.43646630859375 0.3825000000000002 3.46496630859375 0.4095000000000002 Q 3.50396630859375 0.4455000000000001 3.5159663085937503 0.4972500000000002 Q 3.52796630859375 0.5490000000000002 3.52796630859375 0.6210000000000002 L 3.52796630859375 1.0380000000000003 Q 3.52796630859375 1.0755000000000001 3.5392163085937502 1.092 Q 3.5504663085937502 1.1085000000000003 3.57446630859375 1.1085000000000003 Q 3.59096630859375 1.1085000000000003 3.60596630859375 1.1010000000000002 Q 3.62096630859375 1.0935000000000001 3.64196630859375 1.0770000000000002 L 3.6584663085937503 1.1025000000000003 Q 3.62696630859375 1.1265000000000003 3.59846630859375 1.1422500000000002 Q 3.56996630859375 1.1580000000000001 3.52196630859375 1.1580000000000001 Q 3.47846630859375 1.1580000000000001 3.44996630859375 1.1430000000000002 Q 3.4214663085937502 1.1280000000000001 3.40721630859375 1.0987500000000001 Q 3.39296630859375 1.0695000000000001 3.39296630859375 1.0245000000000002 Q 3.3524663085937503 1.092 3.29621630859375 1.1250000000000002 Q 3.23996630859375 1.1580000000000001 3.16946630859375 1.1580000000000001 M 3.22346630859375 1.098 Q 3.27296630859375 1.098 3.31571630859375 1.0695000000000001 Q 3.35846630859375 1.0410000000000001 3.39296630859375 0.9840000000000002 L 3.39296630859375 0.6900000000000002 Q 3.3749663085937502 0.7155000000000002 3.34046630859375 0.7327500000000002 Q 3.3059663085937503 0.7500000000000002 3.26546630859375 0.7672500000000002 Q 3.22496630859375 0.7845000000000002 3.1882163085937503 0.8077500000000002 Q 3.15146630859375 0.8310000000000002 3.12746630859375 0.8685000000000002 Q 3.10346630859375 0.9060000000000001 3.10346630859375 0.9660000000000002 Q 3.10346630859375 1.0260000000000002 3.13571630859375 1.0620000000000003 Q 3.16796630859375 1.098 3.22346630859375 1.098 M 4.406972900390625 0.3750000000000002 L 4.406972900390625 0.40500000000000014 Q 4.3784729003906255 0.40800000000000014 4.3544729003906255 0.4305000000000002 Q 4.3304729003906255 0.4530000000000002 4.309472900390626 0.5100000000000001 L 4.063472900390625 1.1550000000000002 L 4.037972900390625 1.1550000000000002 L 3.7619729003906253 0.49050000000000016 Q 3.733472900390625 0.43200000000000016 3.7057229003906254 0.4192500000000001 Q 3.677972900390625 0.4065000000000002 3.6599729003906254 0.4065000000000002 L 3.6599729003906254 0.3750000000000002 Q 3.6929729003906253 0.37950000000000017 3.7289729003906253 0.38175000000000014 Q 3.7649729003906254 0.3840000000000001 3.806972900390625 0.3840000000000001 Q 3.853472900390625 0.3840000000000001 3.9052229003906254 0.3810000000000001 Q 3.956972900390625 0.3780000000000002 4.0019729003906255 0.3750000000000002 L 4.0019729003906255 0.4065000000000002 Q 3.964472900390625 0.4065000000000002 3.935222900390625 0.41175000000000017 Q 3.9059729003906254 0.41700000000000015 3.898472900390625 0.44325000000000014 Q 3.8909729003906253 0.46950000000000014 3.9164729003906253 0.5325000000000002 L 4.100972900390625 0.9900000000000002 L 4.091972900390625 0.9930000000000002 L 4.262972900390626 0.5460000000000002 Q 4.2824729003906254 0.49650000000000016 4.278722900390625 0.46725000000000017 Q 4.274972900390625 0.43800000000000017 4.247972900390625 0.42300000000000015 Q 4.220972900390625 0.40800000000000014 4.1669729003906255 0.40500000000000014 L 4.1669729003906255 0.3750000000000002 Q 4.193972900390625 0.37650000000000017 4.2134729003906255 0.3772500000000002 Q 4.232972900390625 0.3780000000000002 4.251722900390625 0.37875000000000014 Q 4.270472900390625 0.37950000000000017 4.292972900390625 0.37950000000000017 Q 4.327472900390625 0.37950000000000017 4.3552229003906255 0.3780000000000002 Q 4.382972900390625 0.37650000000000017 4.406972900390625 0.3750000000000002 M 4.063472900390625 1.1550000000000002 L 4.012472900390625 1.2855000000000003 Q 3.9974729003906253 1.3230000000000002 3.981722900390625 1.3485000000000003 Q 3.965972900390625 1.374 3.947972900390625 1.3905000000000003 Q 3.923972900390625 1.4130000000000003 3.8909729003906253 1.4212500000000001 Q 3.8579729003906253 1.4295000000000002 3.830972900390625 1.4295000000000002 Q 3.802472900390625 1.4295000000000002 3.779222900390625 1.4190000000000003 Q 3.755972900390625 1.4085 3.742472900390625 1.3882500000000002 Q 3.7289729003906253 1.368 3.7289729003906253 1.3395000000000001 Q 3.7289729003906253 1.3035 3.7499729003906253 1.2817500000000002 Q 3.770972900390625 1.2600000000000002 3.8084729003906252 1.2600000000000002 Q 3.839972900390625 1.2600000000000002 3.862472900390625 1.2780000000000002 Q 3.884972900390625 1.2960000000000003 3.884972900390625 1.3305000000000002 Q 3.884972900390625 1.356 3.872972900390625 1.3725000000000003 Q 3.860972900390625 1.3890000000000002 3.8444729003906253 1.3980000000000001 Q 3.847472900390625 1.3995000000000002 3.849722900390625 1.3995000000000002 Q 3.851972900390625 1.3995000000000002 3.853472900390625 1.3995000000000002 Q 3.8939729003906254 1.3995000000000002 3.9254729003906252 1.3717500000000002 Q 3.956972900390625 1.3440000000000003 3.980972900390625 1.2825000000000002 L 4.034972900390625 1.1430000000000002 L 4.063472900390625 1.1550000000000002" fill="#ffffff" fill-rule="nonzero"></path></g><g></g><g clip-path="url(#SvgjsClipPath1001)"><g clip-path="url(#SvgjsClipPath1000e6ba11c0-e9ab-4c7d-9607-843dbdd5aa90)"><path d=" M 1.5634185311584385 -0.6799400960685702 C 2.189421385120646 -0.6799400960685702 2.696896966248307 -1.1874156771962316 2.696896966248307 -1.8134185311584388 C 2.696896966248307 -2.439421385120646 2.189421385120646 -2.946896966248307 1.5634185311584385 -2.946896966248307 C 0.9374156771962319 -2.946896966248307 0.42994009606857075 -2.439421385120646 0.42994009606857064 -1.8134185311584388 C 0.42994009606857075 -1.1874156771962316 0.9374156771962319 -0.6799400960685702 1.5634185311584383 -0.6799400960685702 Z M 1.5138637473583276 -2.279233498879484 C 1.5229021019159994 -2.2929568862278917 1.538233796130767 -2.3012174549430897 1.5546661792027572 -2.3012174549430897 C 1.5710985622747473 -2.3012174549430897 1.5864302564895147 -2.2929568862278917 1.5954686110471867 -2.279233498879484 L 2.267291888436413 -1.258907479982208 C 2.2767305480798283 -1.2439660985035155 2.293502408501705 -1.2352867795308677 2.311151196985125 -1.2362105984652647 C 2.328799985468545 -1.2371344173996621 2.3445740403282405 -1.2475173395857904 2.352401190829175 -1.2633624931474245 C 2.36022834133011 -1.2792076467090587 2.358888239109082 -1.2980445786746704 2.348896752125272 -1.3126220738027232 L 1.6770734747360456 -2.332948092699999 C 1.6499672216277053 -2.374130811459233 1.6039689710301535 -2.398922811141587 1.554666179202757 -2.398922811141587 C 1.5053633873753605 -2.398922811141587 1.4593651367778089 -2.374130811459233 1.4322588836694679 -2.332948092699999 L 0.7604635244682983 -1.3126220738027228 C 0.7458216140282715 -1.2900944333933748 0.7521174708009699 -1.2599714199862437 0.7745563530284603 -1.2451938461621186 C 0.7969952352559507 -1.2304162723379926 0.827155688978151 -1.2365302547144426 0.8420683881571575 -1.2588795617941515 Z" fill="#ffffff" transform="matrix(1,0,0,1,0,0)" fill-rule="evenodd"></path></g><g clip-path="url(#SvgjsClipPath1000e6ba11c0-e9ab-4c7d-9607-843dbdd5aa90)"><path d=" M 3.126837062316877 -1.8134185311584385 C 3.126837062316877 -0.9499663187967737 2.426870743520104 -0.25 1.5634185311584385 -0.25 C 0.6999663187967742 -0.25 1.98370657190599e-16 -0.9499663187967733 0 -1.813418531158438 C 0 -2.676870743520103 0.6999663187967737 -3.376837062316877 1.5634185311584383 -3.376837062316877 C 2.426870743520104 -3.376837062316877 3.126837062316877 -2.6768707435201033 3.126837062316877 -1.8134185311584385 Z M 1.5634185311584385 -0.5822264378711681 C 2.2433871483932495 -0.5822264378711681 2.794610624445709 -1.1334499139236276 2.794610624445709 -1.8134185311584388 C 2.794610624445709 -2.4933871483932495 2.2433871483932495 -3.044610624445709 1.5634185311584385 -3.044610624445709 C 0.8834499139236278 -3.044610624445709 0.33222643787116835 -2.49338714839325 0.33222643787116823 -1.8134185311584388 C 0.33222643787116835 -1.1334499139236276 0.8834499139236278 -0.5822264378711681 1.5634185311584385 -0.5822264378711681 Z" fill="#ffffff" transform="matrix(1,0,0,1,0,0)" fill-rule="evenodd"></path></g></g></g><defs><clipPath id="SvgjsClipPath1001"><path d=" M 0 -3.376837062316877 h 3.126837062316877 v 3.126837062316877 h -3.126837062316877 Z"></path></clipPath><clipPath id="SvgjsClipPath1000e6ba11c0-e9ab-4c7d-9607-843dbdd5aa90"><path d=" M 0 -3.376837062316877 L 3.126837062316877 -3.376837062316877 L 3.126837062316877 -0.25 L 0 -0.25 Z"></path></clipPath></defs></svg>